<svg xmlns="http://www.w3.org/2000/svg" viewBox="0 0 48 48">
  <path fill="#EA4335" d="M24 9.5c3.54 0 6.7 1.22 9.19 3.6l6.85-6.85C35.77 2.54 30.27 0 24 0 14.62 0 6.51 5.39 2.66 13.22l7.98 6.19C12.57 14.09 17.89 9.5 24 9.5z"/>
  <path fill="#4285F4" d="M46.15 24.55c0-1.59-.14-3.13-.39-4.64H24v9.03h12.48c-.54 2.88-2.22 5.33-4.73 6.96v.06l7.3 5.66C43.77 37.57 46.15 31.49 46.15 24.55z"/>
  <path fill="#FBBC05" d="M10.64 28.41c-.48-1.48-.76-3.04-.76-4.64s.28-3.16.76-4.64v-.06L2.66 13.22A23.83 23.83 0 0 0 0 23.77c0 3.83.9 7.44 2.66 10.55l7.98-6.19z"/>
  <path fill="#34A853" d="M24 47.5c6.27 0 11.57-2.06 15.43-5.6l-7.3-5.66c-2.04 1.39-4.65 2.19-8.13 2.19-6.11 0-11.43-4.59-13.36-10.84l-7.98 6.19C6.51 42.61 14.62 48 24 48z"/>
</svg>
